<?xml version="1.0" encoding="iso-8859-1"?>
<!-- Generator: Adobe Illustrator 19.0.0, SVG Export Plug-In . SVG Version: 6.00 Build 0)  -->
<svg version="1.1" id="Layer_1" xmlns="http://www.w3.org/2000/svg" xmlns:xlink="http://www.w3.org/1999/xlink" x="0px" y="0px"
	 viewBox="0 0 437.901 437.901" style="enable-background:new 0 0 437.901 437.901;" xml:space="preserve">
<g>
	<g>
		<g>
			<path d="M425.71,172.194c-0.489-3.733-3.671-6.525-7.437-6.525c-3.995,0-7.916-0.105-11.767-0.293
				c-5.841-33.795-20.359-65.563-42.206-92.211c-37.621-45.947-93.221-72.608-152.612-73.15h-0.899c-0.73-0.026-1.466-0.014-2.181,0
				c-53.011,0.337-102.796,21.23-140.186,58.836C31.004,96.485,10.398,146.44,10.398,199.514
				c0,109.351,88.431,198.437,197.535,199.5c0.529,0.005,8.226-0.132,13.532-0.36c18.386,16.921,40.118,29.933,64.974,38.81
				c0.815,0.292,1.669,0.437,2.522,0.437c0.853,0,1.707-0.146,2.522-0.437c36.97-13.203,67.064-35.513,89.448-66.31
				c17.79-24.476,30.71-54.28,38.403-88.586C432.338,224.583,425.988,174.305,425.71,172.194z M356.911,88.018
				c17.074,22.466,28.718,48.502,34.092,76.102c-27.155-3.08-49.897-10.282-66.591-17.2c-2.148-13.402-5.111-26.371-8.847-38.694
				C330.863,102.612,344.721,95.842,356.911,88.018z M347.272,76.361c-10.791,6.758-23.002,12.668-36.471,17.638
				c-9.647-26.239-22.846-48.476-38.436-64.614c-1.843-1.908-3.72-3.716-5.62-5.445C297.47,33.87,325.272,51.812,347.272,76.361z
				 M219.072,15.733c31.177,4.967,60.019,35.761,77.491,83.01c-23.907,7.188-50.388,11.305-77.491,12.048V15.733z M219.072,125.801
				c28.726-0.755,56.85-5.145,82.257-12.829c2.55,8.459,4.719,17.247,6.49,26.288c-9.27-4.757-14.39-8.272-14.544-8.38
				c-2.582-1.814-6.029-1.813-8.617-0.006c-0.349,0.244-25.14,17.272-65.586,27.413V125.801z M204.072,15.516v95.319
				c-27.603-0.635-54.595-4.777-78.923-12.092C142.879,50.772,172.34,19.754,204.072,15.516z M152.212,172.194
				c-0.102,0.776-1.022,8.057-1.503,19.827h-42.453c0.636-27.665,4.786-54.704,12.126-79.047
				c25.829,7.812,54.466,12.22,83.688,12.865v35.719c-13.516,2.511-28.405,4.111-44.422,4.111
				C155.884,165.668,152.702,168.46,152.212,172.194z M157.496,277.486c-12.801,2.109-25.229,4.981-37.113,8.579
				c-7.338-24.339-11.489-51.379-12.125-79.045h42.165C150.455,225.854,151.957,250.703,157.496,277.486z M79.059,69.428
				c21.809-21.935,48.18-37.715,76.981-46.462c-2.271,2.014-4.505,4.151-6.696,6.419c-15.594,16.141-28.793,38.378-38.435,64.614
				c-13.981-5.158-26.61-11.326-37.698-18.408C75.11,73.501,77.056,71.444,79.059,69.428z M106.147,108.226
				c-7.833,25.834-12.249,54.512-12.894,83.794H25.559c1.525-38.389,14.743-74.72,37.953-104.844
				C76.013,95.355,90.303,102.413,106.147,108.226z M63.605,311.801c-22.519-29.272-36.461-65.46-38.042-104.781h67.688v0
				c0.645,29.282,5.061,57.961,12.895,83.794C90.345,296.612,76.084,303.648,63.605,311.801z M73.288,323.399
				c11.071-7.061,23.675-13.214,37.624-18.359c9.651,26.241,22.852,48.478,38.439,64.615c2.155,2.23,4.354,4.325,6.586,6.31
				C123.79,366.113,95.348,347.705,73.288,323.399z M125.149,300.297c11.436-3.441,23.409-6.187,35.764-8.179
				c7.857,30.305,19.962,56.865,36.078,79.038c3.209,4.416,6.596,8.636,10.12,12.701
				C174.247,381.254,143.465,349.797,125.149,300.297z M404.699,279.287c-7.242,32.297-19.321,60.239-35.899,83.049
				c-20.066,27.608-46.916,47.812-79.838,60.083c-32.846-12.243-59.649-32.383-79.699-59.894
				c-16.578-22.747-28.672-50.613-35.945-82.826c-9.884-43.776-8.085-83.918-6.858-99.12c63.765-1.66,108.787-26.163,122.503-34.627
				c13.718,8.465,58.736,32.971,122.508,34.627C412.699,195.715,414.499,235.579,404.699,279.287z"/>
			<path d="M388.762,196.058c-42.713-4.614-75.97-18.178-96.348-28.745c-2.164-1.122-4.74-1.122-6.904,0
				c-20.378,10.567-53.635,24.131-96.347,28.745c-3.784,0.409-6.662,3.587-6.694,7.393c-0.15,17.796,1.066,45.048,7.711,73.816
				c14.265,61.749,46.486,104.013,95.77,125.619c0.96,0.42,1.986,0.631,3.012,0.631s2.052-0.21,3.012-0.631
				c49.285-21.606,81.507-63.871,95.771-125.619c6.646-28.77,7.862-56.021,7.712-73.816
				C395.423,199.645,392.546,196.466,388.762,196.058z M373.129,273.891c-12.841,55.591-41.152,93.893-84.167,113.897
				c-43.015-20.003-71.325-58.305-84.167-113.897c-5.546-24.011-7.112-46.979-7.314-63.723
				c39.525-5.192,70.905-17.499,91.481-27.782c20.576,10.283,51.956,22.59,91.482,27.782
				C380.243,226.911,378.676,249.879,373.129,273.891z"/>
		</g>
	</g>
</g>
<g>
</g>
<g>
</g>
<g>
</g>
<g>
</g>
<g>
</g>
<g>
</g>
<g>
</g>
<g>
</g>
<g>
</g>
<g>
</g>
<g>
</g>
<g>
</g>
<g>
</g>
<g>
</g>
<g>
</g>
</svg>
